<svg width="339" height="68" viewBox="0 0 339 68" fill="none" xmlns="http://www.w3.org/2000/svg">
<g clip-path="url(#clip0_17_2)">
<path d="M225.357 0.0424118H284.405V10.9411H260.981V68.2777H249.268V10.9411H225.357V0.0424118Z" fill="black"/>
<path d="M128.245 0.0424118V10.9411H80.9144V28.4738H118.978V39.3725H80.9144V57.379H128.245V68.2777H69.2025V10.9411H69.1976V0.0424118H128.245Z" fill="black"/>
<path d="M157.73 0.0708771H142.402L197.301 68.3062H212.673L185.22 34.212L212.63 0.122936L197.301 0.146623L177.547 24.6815L157.73 0.0708771Z" fill="black"/>
<path d="M173.458 48.8117L165.782 39.2682L142.358 68.3582H157.73L173.458 48.8117Z" fill="black"/>
<path fill-rule="evenodd" clip-rule="evenodd" d="M69.6129 68.2777L14.6399 0.0139618H0V68.2492H11.7119V14.5992L54.8997 68.2777H69.6129Z" fill="black"/>
<path d="M287.037 67.8609C286.18 67.8609 285.45 67.5638 284.839 66.9696C284.228 66.3753 283.926 65.6558 283.934 64.8035C283.926 63.9746 284.228 63.2629 284.839 62.6686C285.45 62.0744 286.18 61.7772 287.037 61.7772C287.863 61.7772 288.585 62.0744 289.195 62.6686C289.815 63.2629 290.124 63.9746 290.132 64.8035C290.124 65.3664 289.981 65.8825 289.695 66.3439C289.402 66.8131 289.029 67.1807 288.56 67.4466C288.1 67.7203 287.592 67.8609 287.037 67.8609Z" fill="black"/>
<path d="M307.027 39.1154H312.217V59.1106C312.21 60.9483 311.812 62.52 311.035 63.8416C310.25 65.1631 309.162 66.1718 307.766 66.8834C306.377 67.5872 304.75 67.947 302.901 67.947C301.21 67.947 299.695 67.642 298.346 67.0477C296.997 66.4534 295.925 65.5619 295.14 64.3889C294.346 63.2159 293.957 61.7537 293.957 60.0021H299.155C299.163 60.7684 299.338 61.433 299.671 61.9882C300.004 62.5435 300.464 62.9657 301.052 63.2628C301.646 63.56 302.329 63.7086 303.099 63.7086C303.932 63.7086 304.647 63.5365 305.226 63.1846C305.805 62.8406 306.25 62.3245 306.559 61.6363C306.86 60.9561 307.02 60.1115 307.027 59.1106V39.1154Z" fill="black"/>
<path d="M333.572 46.9352C333.445 45.7231 332.889 44.7769 331.921 44.1044C330.945 43.4241 329.683 43.0879 328.136 43.0879C327.049 43.0879 326.113 43.2521 325.335 43.5727C324.557 43.9011 323.954 44.339 323.541 44.8942C323.129 45.4494 322.922 46.0829 322.906 46.7945C322.906 47.3888 323.049 47.9049 323.327 48.335C323.605 48.7728 323.977 49.1404 324.462 49.4376C324.938 49.7425 325.469 49.9927 326.049 50.196C326.636 50.3993 327.224 50.5714 327.81 50.7122L330.516 51.3769C331.604 51.6271 332.66 51.9634 333.667 52.3934C334.675 52.8157 335.588 53.3553 336.389 54.0043C337.191 54.6534 337.826 55.4353 338.294 56.3503C338.762 57.2651 339 58.3364 339 59.572C339 61.2375 338.572 62.6999 337.706 63.9667C336.841 65.2256 335.595 66.2109 333.961 66.9226C332.334 67.6264 330.366 67.986 328.049 67.986C325.811 67.986 323.859 67.6421 322.216 66.9539C320.566 66.2736 319.279 65.2726 318.351 63.9588C317.423 62.6452 316.923 61.0421 316.851 59.1575H321.994C322.065 60.1428 322.383 60.9639 322.922 61.6286C323.47 62.2854 324.184 62.7703 325.057 63.0987C325.938 63.4193 326.922 63.5835 328.009 63.5835C329.144 63.5835 330.144 63.4114 331.009 63.0752C331.866 62.7389 332.54 62.2699 333.024 61.6599C333.517 61.0577 333.763 60.3462 333.77 59.5329C333.763 58.79 333.54 58.1722 333.111 57.6873C332.675 57.2026 332.072 56.7959 331.302 56.4675C330.525 56.1391 329.62 55.8419 328.588 55.5839L325.303 54.755C322.93 54.1529 321.049 53.238 319.676 52.0103C318.296 50.7826 317.613 49.1561 317.613 47.1151C317.613 45.4417 318.073 43.9716 319.002 42.7126C319.922 41.4536 321.184 40.4761 322.78 39.7801C324.383 39.0764 326.192 38.7322 328.207 38.7322C330.255 38.7322 332.048 39.0764 333.596 39.7801C335.143 40.4761 336.358 41.4458 337.238 42.6812C338.119 43.9168 338.579 45.3322 338.603 46.9352H333.572Z" fill="black"/>
</g>
<defs>
<clipPath id="clip0_17_2">
<rect width="339" height="68" fill="white"/>
</clipPath>
</defs>
</svg>
